{
	"asset":{
		"generator":"Khronos glTF Blender I/O v3.6.28",
		"version":"2.0"
	},
	"extensionsUsed":[
		"KHR_materials_specular",
		"KHR_materials_ior"
	],
	"scene":0,
	"scenes":[
		{
			"extras":{
				"niftools_scene":{}
			},
			"name":"Scene",
			"nodes":[
				0
			]
		}
	],
	"nodes":[
		{
			"extras":{
				"niftools":{
					"extra_data_store":{}
				}
			},
			"mesh":0,
			"name":"tower-commercial-near.003"
		}
	],
	"materials":[
		{
			"alphaMode":"BLEND",
			"doubleSided":true,
			"extensions":{
				"KHR_materials_specular":{
					"specularColorFactor":[
						0,
						0,
						0
					]
				},
				"KHR_materials_ior":{
					"ior":1.4500000476837158
				}
			},
			"extras":{
				"niftools":{},
				"niftools_alpha":{}
			},
			"name":"tower-commercial-side",
			"pbrMetallicRoughness":{
				"baseColorTexture":{
					"index":0
				},
				"metallicFactor":0
			}
		},
		{
			"alphaMode":"BLEND",
			"doubleSided":true,
			"extensions":{
				"KHR_materials_specular":{
					"specularColorFactor":[
						0,
						0,
						0
					]
				},
				"KHR_materials_ior":{
					"ior":1.4500000476837158
				}
			},
			"extras":{
				"niftools":{},
				"niftools_alpha":{}
			},
			"name":"tower-commercial-front",
			"pbrMetallicRoughness":{
				"baseColorTexture":{
					"index":1
				},
				"metallicFactor":0
			}
		}
	],
	"meshes":[
		{
			"name":"tower-commercial-near.003",
			"primitives":[
				{
					"attributes":{
						"POSITION":0,
						"NORMAL":1,
						"TEXCOORD_0":2
					},
					"indices":3,
					"material":0
				},
				{
					"attributes":{
						"POSITION":4,
						"NORMAL":5,
						"TEXCOORD_0":6
					},
					"indices":3,
					"material":0
				},
				{
					"attributes":{
						"POSITION":7,
						"NORMAL":8,
						"TEXCOORD_0":9
					},
					"indices":3,
					"material":0
				},
				{
					"attributes":{
						"POSITION":10,
						"NORMAL":11,
						"TEXCOORD_0":12
					},
					"indices":3,
					"material":1
				}
			]
		}
	],
	"textures":[
		{
			"sampler":0,
			"source":0
		},
		{
			"sampler":0,
			"source":1
		}
	],
	"images":[
		{
			"bufferView":4,
			"mimeType":"image/png",
			"name":"tower-commercial-side"
		},
		{
			"bufferView":14,
			"mimeType":"image/png",
			"name":"tower-commercial-front"
		}
	],
	"accessors":[
		{
			"bufferView":0,
			"componentType":5126,
			"count":4,
			"max":[
				2.0682075023651123,
				-0.49837249517440796,
				0.16387343406677246
			],
			"min":[
				-2.0682075023651123,
				-1.631241798400879,
				-4.901679992675781
			],
			"type":"VEC3"
		},
		{
			"bufferView":1,
			"componentType":5126,
			"count":4,
			"type":"VEC3"
		},
		{
			"bufferView":2,
			"componentType":5126,
			"count":4,
			"type":"VEC2"
		},
		{
			"bufferView":3,
			"componentType":5123,
			"count":6,
			"type":"SCALAR"
		},
		{
			"bufferView":5,
			"componentType":5126,
			"count":4,
			"max":[
				-0.31638339161872864,
				1.8582022190093994,
				0.18152761459350586
			],
			"min":[
				-1.338152527809143,
				-2.292154312133789,
				-4.9193339347839355
			],
			"type":"VEC3"
		},
		{
			"bufferView":6,
			"componentType":5126,
			"count":4,
			"type":"VEC3"
		},
		{
			"bufferView":7,
			"componentType":5126,
			"count":4,
			"type":"VEC2"
		},
		{
			"bufferView":8,
			"componentType":5126,
			"count":4,
			"max":[
				1.3884251117706299,
				1.8452801704406738,
				0.18152761459350586
			],
			"min":[
				0.4046166241168976,
				-2.2792325019836426,
				-4.919333457946777
			],
			"type":"VEC3"
		},
		{
			"bufferView":9,
			"componentType":5126,
			"count":4,
			"type":"VEC3"
		},
		{
			"bufferView":10,
			"componentType":5126,
			"count":4,
			"type":"VEC2"
		},
		{
			"bufferView":11,
			"componentType":5126,
			"count":4,
			"max":[
				2.0590310096740723,
				1.2685456275939941,
				0.16387414932250977
			],
			"min":[
				-2.0855298042297363,
				0.10605549812316895,
				-4.901679992675781
			],
			"type":"VEC3"
		},
		{
			"bufferView":12,
			"componentType":5126,
			"count":4,
			"type":"VEC3"
		},
		{
			"bufferView":13,
			"componentType":5126,
			"count":4,
			"type":"VEC2"
		}
	],
	"bufferViews":[
		{
			"buffer":0,
			"byteLength":48,
			"byteOffset":0,
			"target":34962
		},
		{
			"buffer":0,
			"byteLength":48,
			"byteOffset":48,
			"target":34962
		},
		{
			"buffer":0,
			"byteLength":32,
			"byteOffset":96,
			"target":34962
		},
		{
			"buffer":0,
			"byteLength":12,
			"byteOffset":128,
			"target":34963
		},
		{
			"buffer":0,
			"byteLength":345287,
			"byteOffset":140
		},
		{
			"buffer":0,
			"byteLength":48,
			"byteOffset":345428,
			"target":34962
		},
		{
			"buffer":0,
			"byteLength":48,
			"byteOffset":345476,
			"target":34962
		},
		{
			"buffer":0,
			"byteLength":32,
			"byteOffset":345524,
			"target":34962
		},
		{
			"buffer":0,
			"byteLength":48,
			"byteOffset":345556,
			"target":34962
		},
		{
			"buffer":0,
			"byteLength":48,
			"byteOffset":345604,
			"target":34962
		},
		{
			"buffer":0,
			"byteLength":32,
			"byteOffset":345652,
			"target":34962
		},
		{
			"buffer":0,
			"byteLength":48,
			"byteOffset":345684,
			"target":34962
		},
		{
			"buffer":0,
			"byteLength":48,
			"byteOffset":345732,
			"target":34962
		},
		{
			"buffer":0,
			"byteLength":32,
			"byteOffset":345780,
			"target":34962
		},
		{
			"buffer":0,
			"byteLength":334279,
			"byteOffset":345812
		}
	],
	"samplers":[
		{
			"magFilter":9729,
			"minFilter":9987,
			"wrapS":33071,
			"wrapT":33071
		}
	],
	"buffers":[
		{
			"byteLength":680092,
			"uri":"data:application/octet-stream;base64,"
		}
	]
}
