{
	"asset":{
		"generator":"Khronos glTF Blender I/O v3.6.28",
		"version":"2.0"
	},
	"extensionsUsed":[
		"KHR_materials_specular",
		"KHR_materials_ior"
	],
	"scene":0,
	"scenes":[
		{
			"extras":{
				"niftools_scene":{}
			},
			"name":"Scene",
			"nodes":[
				0
			]
		}
	],
	"nodes":[
		{
			"extras":{
				"niftools":{
					"extra_data_store":{}
				}
			},
			"mesh":0,
			"name":"tower-commercial-near.003",
			"rotation":[
				0.10953216254711151,
				0.01139809750020504,
				0.0015869613271206617,
				0.9939166307449341
			],
			"scale":[
				5.158087730407715,
				1.4712555408477783,
				5.099550724029541
			],
			"translation":[
				-0.040064334869384766,
				-1.3012206554412842,
				-2.2551701068878174
			]
		}
	],
	"materials":[
		{
			"alphaMode":"BLEND",
			"doubleSided":true,
			"extensions":{
				"KHR_materials_specular":{
					"specularColorFactor":[
						0,
						0,
						0
					]
				},
				"KHR_materials_ior":{
					"ior":1.4500000476837158
				}
			},
			"extras":{
				"niftools":{},
				"niftools_alpha":{}
			},
			"name":"tower-commercial-near",
			"pbrMetallicRoughness":{
				"baseColorTexture":{
					"index":0
				},
				"metallicFactor":0
			}
		}
	],
	"meshes":[
		{
			"name":"tower-commercial-near.003",
			"primitives":[
				{
					"attributes":{
						"POSITION":0,
						"NORMAL":1,
						"TEXCOORD_0":2
					},
					"indices":3,
					"material":0
				},
				{
					"attributes":{
						"POSITION":4,
						"NORMAL":5,
						"TEXCOORD_0":6
					},
					"indices":3,
					"material":0
				},
				{
					"attributes":{
						"POSITION":7,
						"NORMAL":8,
						"TEXCOORD_0":9
					},
					"indices":3,
					"material":0
				},
				{
					"attributes":{
						"POSITION":10,
						"NORMAL":11,
						"TEXCOORD_0":12
					},
					"indices":3,
					"material":0
				}
			]
		}
	],
	"textures":[
		{
			"sampler":0,
			"source":0
		}
	],
	"images":[
		{
			"bufferView":4,
			"mimeType":"image/png",
			"name":"tower-commercial-near"
		}
	],
	"accessors":[
		{
			"bufferView":0,
			"componentType":5126,
			"count":4,
			"max":[
				0.3896951973438263,
				0,
				0.5
			],
			"min":[
				-0.3896951973438263,
				0,
				-0.5
			],
			"type":"VEC3"
		},
		{
			"bufferView":1,
			"componentType":5126,
			"count":4,
			"type":"VEC3"
		},
		{
			"bufferView":2,
			"componentType":5126,
			"count":4,
			"type":"VEC2"
		},
		{
			"bufferView":3,
			"componentType":5123,
			"count":6,
			"type":"SCALAR"
		},
		{
			"bufferView":5,
			"componentType":5126,
			"count":4,
			"max":[
				-0.051490090787410736,
				2.2296221256256104,
				0.517216682434082
			],
			"min":[
				-0.26733243465423584,
				-1.104015588760376,
				-0.5970669984817505
			],
			"type":"VEC3"
		},
		{
			"bufferView":6,
			"componentType":5126,
			"count":4,
			"type":"VEC3"
		},
		{
			"bufferView":7,
			"componentType":5126,
			"count":4,
			"type":"VEC2"
		},
		{
			"bufferView":8,
			"componentType":5126,
			"count":4,
			"max":[
				0.26165565848350525,
				2.293846607208252,
				0.5414390563964844
			],
			"min":[
				0.08772768825292587,
				-1.16978120803833,
				-0.6057366132736206
			],
			"type":"VEC3"
		},
		{
			"bufferView":9,
			"componentType":5126,
			"count":4,
			"type":"VEC3"
		},
		{
			"bufferView":10,
			"componentType":5126,
			"count":4,
			"type":"VEC2"
		},
		{
			"bufferView":11,
			"componentType":5126,
			"count":4,
			"max":[
				0.4109872877597809,
				1.9219224452972412,
				0.3937329649925232
			],
			"min":[
				-0.41228386759757996,
				0.4027131199836731,
				-0.5434444546699524
			],
			"type":"VEC3"
		},
		{
			"bufferView":12,
			"componentType":5126,
			"count":4,
			"type":"VEC3"
		},
		{
			"bufferView":13,
			"componentType":5126,
			"count":4,
			"type":"VEC2"
		}
	],
	"bufferViews":[
		{
			"buffer":0,
			"byteLength":48,
			"byteOffset":0,
			"target":34962
		},
		{
			"buffer":0,
			"byteLength":48,
			"byteOffset":48,
			"target":34962
		},
		{
			"buffer":0,
			"byteLength":32,
			"byteOffset":96,
			"target":34962
		},
		{
			"buffer":0,
			"byteLength":12,
			"byteOffset":128,
			"target":34963
		},
		{
			"buffer":0,
			"byteLength":308982,
			"byteOffset":140
		},
		{
			"buffer":0,
			"byteLength":48,
			"byteOffset":309124,
			"target":34962
		},
		{
			"buffer":0,
			"byteLength":48,
			"byteOffset":309172,
			"target":34962
		},
		{
			"buffer":0,
			"byteLength":32,
			"byteOffset":309220,
			"target":34962
		},
		{
			"buffer":0,
			"byteLength":48,
			"byteOffset":309252,
			"target":34962
		},
		{
			"buffer":0,
			"byteLength":48,
			"byteOffset":309300,
			"target":34962
		},
		{
			"buffer":0,
			"byteLength":32,
			"byteOffset":309348,
			"target":34962
		},
		{
			"buffer":0,
			"byteLength":48,
			"byteOffset":309380,
			"target":34962
		},
		{
			"buffer":0,
			"byteLength":48,
			"byteOffset":309428,
			"target":34962
		},
		{
			"buffer":0,
			"byteLength":32,
			"byteOffset":309476,
			"target":34962
		}
	],
	"samplers":[
		{
			"magFilter":9729,
			"minFilter":9987,
			"wrapS":33071,
			"wrapT":33071
		}
	],
	"buffers":[
		{
			"byteLength":309508,
			"uri":"data:application/octet-stream;base64,"
		}
	]
}
