{
	"asset":{
		"generator":"Khronos glTF Blender I/O v3.6.28",
		"version":"2.0"
	},
	"extensionsUsed":[
		"KHR_materials_specular",
		"KHR_materials_ior"
	],
	"scene":0,
	"scenes":[
		{
			"extras":{
				"niftools_scene":{}
			},
			"name":"Scene",
			"nodes":[
				0
			]
		}
	],
	"nodes":[
		{
			"extras":{
				"niftools":{
					"extra_data_store":{}
				}
			},
			"mesh":0,
			"name":"cityblock"
		}
	],
	"materials":[
		{
			"alphaMode":"BLEND",
			"doubleSided":true,
			"extensions":{
				"KHR_materials_specular":{
					"specularColorFactor":[
						1.168432586472055,
						1.168432586472055,
						1.168432586472055
					]
				},
				"KHR_materials_ior":{
					"ior":1.4500000476837158
				}
			},
			"extras":{
				"niftools":{
					"lightingeffect2":2.0
				},
				"niftools_alpha":{}
			},
			"name":"stone_tiles",
			"pbrMetallicRoughness":{
				"baseColorTexture":{
					"index":0
				},
				"metallicFactor":0
			}
		}
	],
	"meshes":[
		{
			"name":"stone_tiles",
			"primitives":[
				{
					"attributes":{
						"POSITION":0,
						"NORMAL":1,
						"TEXCOORD_0":2
					},
					"indices":3,
					"material":0
				},
				{
					"attributes":{
						"POSITION":4,
						"NORMAL":5,
						"TEXCOORD_0":6
					},
					"indices":3,
					"material":0
				},
				{
					"attributes":{
						"POSITION":7,
						"NORMAL":8,
						"TEXCOORD_0":9
					},
					"indices":10,
					"material":0
				},
				{
					"attributes":{
						"POSITION":11,
						"NORMAL":12,
						"TEXCOORD_0":13
					},
					"indices":10,
					"material":0
				},
				{
					"attributes":{
						"POSITION":14,
						"NORMAL":15,
						"TEXCOORD_0":16
					},
					"indices":17,
					"material":0
				},
				{
					"attributes":{
						"POSITION":18,
						"NORMAL":19,
						"TEXCOORD_0":20
					},
					"indices":10,
					"material":0
				},
				{
					"attributes":{
						"POSITION":21,
						"NORMAL":22,
						"TEXCOORD_0":23
					},
					"indices":17,
					"material":0
				},
				{
					"attributes":{
						"POSITION":24,
						"NORMAL":25,
						"TEXCOORD_0":26
					},
					"indices":10,
					"material":0
				},
				{
					"attributes":{
						"POSITION":27,
						"NORMAL":28,
						"TEXCOORD_0":29
					},
					"indices":17,
					"material":0
				},
				{
					"attributes":{
						"POSITION":30,
						"NORMAL":31,
						"TEXCOORD_0":32
					},
					"indices":10,
					"material":0
				}
			]
		}
	],
	"textures":[
		{
			"sampler":0,
			"source":0
		}
	],
	"images":[
		{
			"bufferView":4,
			"mimeType":"image/png",
			"name":"stone_tiles"
		}
	],
	"accessors":[
		{
			"bufferView":0,
			"componentType":5126,
			"count":4,
			"max":[
				2.0188424587249756,
				1.8156960010528564,
				-0.12377225607633591
			],
			"min":[
				-1.9285261631011963,
				-2.1046226024627686,
				-0.12377240508794785
			],
			"type":"VEC3"
		},
		{
			"bufferView":1,
			"componentType":5126,
			"count":4,
			"type":"VEC3"
		},
		{
			"bufferView":2,
			"componentType":5126,
			"count":4,
			"type":"VEC2"
		},
		{
			"bufferView":3,
			"componentType":5123,
			"count":6,
			"type":"SCALAR"
		},
		{
			"bufferView":5,
			"componentType":5126,
			"count":4,
			"max":[
				2.018843412399292,
				1.8156986236572266,
				0.19005422294139862
			],
			"min":[
				-1.9285273551940918,
				-2.1046249866485596,
				0.19005410373210907
			],
			"type":"VEC3"
		},
		{
			"bufferView":6,
			"componentType":5126,
			"count":4,
			"type":"VEC3"
		},
		{
			"bufferView":7,
			"componentType":5126,
			"count":4,
			"type":"VEC2"
		},
		{
			"bufferView":8,
			"componentType":5126,
			"count":4,
			"max":[
				2.018843412399292,
				-2.088989734649658,
				0.19005410373210907
			],
			"min":[
				-1.9285273551940918,
				-2.088989734649658,
				-0.14386853575706482
			],
			"type":"VEC3"
		},
		{
			"bufferView":9,
			"componentType":5126,
			"count":4,
			"type":"VEC3"
		},
		{
			"bufferView":10,
			"componentType":5126,
			"count":4,
			"type":"VEC2"
		},
		{
			"bufferView":11,
			"componentType":5123,
			"count":6,
			"type":"SCALAR"
		},
		{
			"bufferView":12,
			"componentType":5126,
			"count":4,
			"max":[
				2.018843412399292,
				1.7989497184753418,
				0.1901322901248932
			],
			"min":[
				-1.9285273551940918,
				1.7989497184753418,
				-0.14379030466079712
			],
			"type":"VEC3"
		},
		{
			"bufferView":13,
			"componentType":5126,
			"count":4,
			"type":"VEC3"
		},
		{
			"bufferView":14,
			"componentType":5126,
			"count":4,
			"type":"VEC2"
		},
		{
			"bufferView":15,
			"componentType":5126,
			"count":4,
			"max":[
				1.976616621017456,
				-1.6022710800170898,
				0.1901322901248932
			],
			"min":[
				1.976616621017456,
				-2.0795671939849854,
				-0.14379040896892548
			],
			"type":"VEC3"
		},
		{
			"bufferView":16,
			"componentType":5126,
			"count":4,
			"type":"VEC3"
		},
		{
			"bufferView":17,
			"componentType":5126,
			"count":4,
			"type":"VEC2"
		},
		{
			"bufferView":18,
			"componentType":5123,
			"count":6,
			"type":"SCALAR"
		},
		{
			"bufferView":19,
			"componentType":5126,
			"count":4,
			"max":[
				1.976616621017456,
				1.785844087600708,
				0.1901322305202484
			],
			"min":[
				1.976616621017456,
				-1.607677936553955,
				-0.1437903791666031
			],
			"type":"VEC3"
		},
		{
			"bufferView":20,
			"componentType":5126,
			"count":4,
			"type":"VEC3"
		},
		{
			"bufferView":21,
			"componentType":5126,
			"count":4,
			"type":"VEC2"
		},
		{
			"bufferView":22,
			"componentType":5126,
			"count":4,
			"max":[
				1.976616621017456,
				-1.6022710800170898,
				0.1901322901248932
			],
			"min":[
				1.976616621017456,
				-2.0795671939849854,
				-0.14379040896892548
			],
			"type":"VEC3"
		},
		{
			"bufferView":23,
			"componentType":5126,
			"count":4,
			"type":"VEC3"
		},
		{
			"bufferView":24,
			"componentType":5126,
			"count":4,
			"type":"VEC2"
		},
		{
			"bufferView":25,
			"componentType":5126,
			"count":4,
			"max":[
				1.976616621017456,
				1.785844087600708,
				0.1901322305202484
			],
			"min":[
				1.976616621017456,
				-1.607677936553955,
				-0.1437903791666031
			],
			"type":"VEC3"
		},
		{
			"bufferView":26,
			"componentType":5126,
			"count":4,
			"type":"VEC3"
		},
		{
			"bufferView":27,
			"componentType":5126,
			"count":4,
			"type":"VEC2"
		},
		{
			"bufferView":28,
			"componentType":5126,
			"count":4,
			"max":[
				-1.926520586013794,
				-1.6022710800170898,
				0.1901322901248932
			],
			"min":[
				-1.926520586013794,
				-2.0795671939849854,
				-0.14379040896892548
			],
			"type":"VEC3"
		},
		{
			"bufferView":29,
			"componentType":5126,
			"count":4,
			"type":"VEC3"
		},
		{
			"bufferView":30,
			"componentType":5126,
			"count":4,
			"type":"VEC2"
		},
		{
			"bufferView":31,
			"componentType":5126,
			"count":4,
			"max":[
				-1.926520586013794,
				1.785844087600708,
				0.1901322305202484
			],
			"min":[
				-1.926520824432373,
				-1.607677936553955,
				-0.1437903791666031
			],
			"type":"VEC3"
		},
		{
			"bufferView":32,
			"componentType":5126,
			"count":4,
			"type":"VEC3"
		},
		{
			"bufferView":33,
			"componentType":5126,
			"count":4,
			"type":"VEC2"
		}
	],
	"bufferViews":[
		{
			"buffer":0,
			"byteLength":48,
			"byteOffset":0,
			"target":34962
		},
		{
			"buffer":0,
			"byteLength":48,
			"byteOffset":48,
			"target":34962
		},
		{
			"buffer":0,
			"byteLength":32,
			"byteOffset":96,
			"target":34962
		},
		{
			"buffer":0,
			"byteLength":12,
			"byteOffset":128,
			"target":34963
		},
		{
			"buffer":0,
			"byteLength":43160,
			"byteOffset":140
		},
		{
			"buffer":0,
			"byteLength":48,
			"byteOffset":43300,
			"target":34962
		},
		{
			"buffer":0,
			"byteLength":48,
			"byteOffset":43348,
			"target":34962
		},
		{
			"buffer":0,
			"byteLength":32,
			"byteOffset":43396,
			"target":34962
		},
		{
			"buffer":0,
			"byteLength":48,
			"byteOffset":43428,
			"target":34962
		},
		{
			"buffer":0,
			"byteLength":48,
			"byteOffset":43476,
			"target":34962
		},
		{
			"buffer":0,
			"byteLength":32,
			"byteOffset":43524,
			"target":34962
		},
		{
			"buffer":0,
			"byteLength":12,
			"byteOffset":43556,
			"target":34963
		},
		{
			"buffer":0,
			"byteLength":48,
			"byteOffset":43568,
			"target":34962
		},
		{
			"buffer":0,
			"byteLength":48,
			"byteOffset":43616,
			"target":34962
		},
		{
			"buffer":0,
			"byteLength":32,
			"byteOffset":43664,
			"target":34962
		},
		{
			"buffer":0,
			"byteLength":48,
			"byteOffset":43696,
			"target":34962
		},
		{
			"buffer":0,
			"byteLength":48,
			"byteOffset":43744,
			"target":34962
		},
		{
			"buffer":0,
			"byteLength":32,
			"byteOffset":43792,
			"target":34962
		},
		{
			"buffer":0,
			"byteLength":12,
			"byteOffset":43824,
			"target":34963
		},
		{
			"buffer":0,
			"byteLength":48,
			"byteOffset":43836,
			"target":34962
		},
		{
			"buffer":0,
			"byteLength":48,
			"byteOffset":43884,
			"target":34962
		},
		{
			"buffer":0,
			"byteLength":32,
			"byteOffset":43932,
			"target":34962
		},
		{
			"buffer":0,
			"byteLength":48,
			"byteOffset":43964,
			"target":34962
		},
		{
			"buffer":0,
			"byteLength":48,
			"byteOffset":44012,
			"target":34962
		},
		{
			"buffer":0,
			"byteLength":32,
			"byteOffset":44060,
			"target":34962
		},
		{
			"buffer":0,
			"byteLength":48,
			"byteOffset":44092,
			"target":34962
		},
		{
			"buffer":0,
			"byteLength":48,
			"byteOffset":44140,
			"target":34962
		},
		{
			"buffer":0,
			"byteLength":32,
			"byteOffset":44188,
			"target":34962
		},
		{
			"buffer":0,
			"byteLength":48,
			"byteOffset":44220,
			"target":34962
		},
		{
			"buffer":0,
			"byteLength":48,
			"byteOffset":44268,
			"target":34962
		},
		{
			"buffer":0,
			"byteLength":32,
			"byteOffset":44316,
			"target":34962
		},
		{
			"buffer":0,
			"byteLength":48,
			"byteOffset":44348,
			"target":34962
		},
		{
			"buffer":0,
			"byteLength":48,
			"byteOffset":44396,
			"target":34962
		},
		{
			"buffer":0,
			"byteLength":32,
			"byteOffset":44444,
			"target":34962
		}
	],
	"samplers":[
		{
			"magFilter":9729,
			"minFilter":9987,
			"wrapS":33071,
			"wrapT":33071
		}
	],
	"buffers":[
		{
			"byteLength":44476,
			"uri":"data:application/octet-stream;base64,"
		}
	]
}
