{
	"asset":{
		"generator":"Khronos glTF Blender I/O v3.6.28",
		"version":"2.0"
	},
	"scene":0,
	"scenes":[
		{
			"extras":{
				"niftools_scene":{}
			},
			"name":"Scene",
			"nodes":[
				0
			]
		}
	],
	"nodes":[
		{
			"extras":{
				"niftools":{
					"extra_data_store":{}
				}
			},
			"mesh":0,
			"name":"road"
		}
	],
	"materials":[
		{
			"alphaMode":"BLEND",
			"doubleSided":true,
			"extras":{
				"niftools":{
					"lightingeffect2":2.0
				},
				"niftools_alpha":{}
			},
			"name":"stone_tiles.010",
			"pbrMetallicRoughness":{
				"baseColorTexture":{
					"index":0
				},
				"metallicFactor":0,
				"roughnessFactor":0.5
			}
		},
		{
			"alphaMode":"BLEND",
			"doubleSided":true,
			"extras":{
				"niftools":{
					"lightingeffect2":2.0
				},
				"niftools_alpha":{}
			},
			"name":"road",
			"pbrMetallicRoughness":{
				"baseColorTexture":{
					"index":1
				},
				"metallicFactor":0
			}
		},
		{
			"alphaMode":"BLEND",
			"doubleSided":true,
			"extras":{
				"niftools":{
					"lightingeffect2":2.0
				},
				"niftools_alpha":{}
			},
			"name":"stone_tiles.011",
			"pbrMetallicRoughness":{
				"baseColorTexture":{
					"index":2
				},
				"metallicFactor":0,
				"roughnessFactor":0.5
			}
		}
	],
	"meshes":[
		{
			"name":"stone_tiles.011",
			"primitives":[
				{
					"attributes":{
						"POSITION":0,
						"NORMAL":1,
						"TEXCOORD_0":2
					},
					"indices":3,
					"material":0
				},
				{
					"attributes":{
						"POSITION":4,
						"NORMAL":5,
						"TEXCOORD_0":6
					},
					"indices":7,
					"material":1
				},
				{
					"attributes":{
						"POSITION":8,
						"NORMAL":9,
						"TEXCOORD_0":10
					},
					"indices":11,
					"material":2
				}
			]
		}
	],
	"textures":[
		{
			"sampler":0,
			"source":0
		},
		{
			"sampler":0,
			"source":0
		},
		{
			"sampler":0,
			"source":0
		}
	],
	"images":[
		{
			"bufferView":4,
			"mimeType":"image/png",
			"name":"stone_tiles"
		}
	],
	"accessors":[
		{
			"bufferView":0,
			"componentType":5126,
			"count":156,
			"max":[
				2.0911386013031006,
				1.8972129821777344,
				0.20194867253303528
			],
			"min":[
				-1.9972206354141235,
				-2.039132595062256,
				-0.1429312527179718
			],
			"type":"VEC3"
		},
		{
			"bufferView":1,
			"componentType":5126,
			"count":156,
			"type":"VEC3"
		},
		{
			"bufferView":2,
			"componentType":5126,
			"count":156,
			"type":"VEC2"
		},
		{
			"bufferView":3,
			"componentType":5123,
			"count":342,
			"type":"SCALAR"
		},
		{
			"bufferView":5,
			"componentType":5126,
			"count":40,
			"max":[
				2.042048931121826,
				1.154726505279541,
				0.10537835210561752
			],
			"min":[
				-1.813839316368103,
				-0.9413381218910217,
				-0.00672319158911705
			],
			"type":"VEC3"
		},
		{
			"bufferView":6,
			"componentType":5126,
			"count":40,
			"type":"VEC3"
		},
		{
			"bufferView":7,
			"componentType":5126,
			"count":40,
			"type":"VEC2"
		},
		{
			"bufferView":8,
			"componentType":5123,
			"count":60,
			"type":"SCALAR"
		},
		{
			"bufferView":9,
			"componentType":5126,
			"count":52,
			"max":[
				2.0911386013031006,
				1.3970204591751099,
				0.20194867253303528
			],
			"min":[
				-1.8998414278030396,
				0.8334331512451172,
				-0.1429312527179718
			],
			"type":"VEC3"
		},
		{
			"bufferView":10,
			"componentType":5126,
			"count":52,
			"type":"VEC3"
		},
		{
			"bufferView":11,
			"componentType":5126,
			"count":52,
			"type":"VEC2"
		},
		{
			"bufferView":12,
			"componentType":5123,
			"count":114,
			"type":"SCALAR"
		}
	],
	"bufferViews":[
		{
			"buffer":0,
			"byteLength":1872,
			"byteOffset":0,
			"target":34962
		},
		{
			"buffer":0,
			"byteLength":1872,
			"byteOffset":1872,
			"target":34962
		},
		{
			"buffer":0,
			"byteLength":1248,
			"byteOffset":3744,
			"target":34962
		},
		{
			"buffer":0,
			"byteLength":684,
			"byteOffset":4992,
			"target":34963
		},
		{
			"buffer":0,
			"byteLength":43160,
			"byteOffset":5676
		},
		{
			"buffer":0,
			"byteLength":480,
			"byteOffset":48836,
			"target":34962
		},
		{
			"buffer":0,
			"byteLength":480,
			"byteOffset":49316,
			"target":34962
		},
		{
			"buffer":0,
			"byteLength":320,
			"byteOffset":49796,
			"target":34962
		},
		{
			"buffer":0,
			"byteLength":120,
			"byteOffset":50116,
			"target":34963
		},
		{
			"buffer":0,
			"byteLength":624,
			"byteOffset":50236,
			"target":34962
		},
		{
			"buffer":0,
			"byteLength":624,
			"byteOffset":50860,
			"target":34962
		},
		{
			"buffer":0,
			"byteLength":416,
			"byteOffset":51484,
			"target":34962
		},
		{
			"buffer":0,
			"byteLength":228,
			"byteOffset":51900,
			"target":34963
		}
	],
	"samplers":[
		{
			"magFilter":9729,
			"minFilter":9987,
			"wrapS":33071,
			"wrapT":33071
		}
	],
	"buffers":[
		{
			"byteLength":52128,
			"uri":"data:application/octet-stream;base64,"
		}
	]
}
