{
  "asset": {
    "generator": "SoK Empire Prologue - Light Sphere Generator",
    "version": "2.0"
  },
  "scene": 0,
  "scenes": [
    {
      "name": "Light Sphere Scene",
      "nodes": [0]
    }
  ],
  "nodes": [
    {
      "name": "LightSphere",
      "mesh": 0
    }
  ],
  "meshes": [
    {
      "name": "Sphere",
      "primitives": [
        {
          "attributes": {
            "POSITION": 0,
            "NORMAL": 1,
            "TEXCOORD_0": 2
          },
          "indices": 3,
          "material": 0
        }
      ]
    }
  ],
  "materials": [
    {
      "name": "EmissiveLight",
      "pbrMetallicRoughness": {
        "baseColorFactor": [1.0, 1.0, 0.9, 1.0],
        "metallicFactor": 0.0,
        "roughnessFactor": 0.9
      },
      "emissiveFactor": [1.0, 0.95, 0.8],
      "doubleSided": false
    }
  ],
  "accessors": [
    {
      "bufferView": 0,
      "componentType": 5126,
      "count": 382,
      "type": "VEC3",
      "max": [0.5, 0.5, 0.5],
      "min": [-0.5, -0.5, -0.5]
    },
    {
      "bufferView": 1,
      "componentType": 5126,
      "count": 382,
      "type": "VEC3"
    },
    {
      "bufferView": 2,
      "componentType": 5126,
      "count": 382,
      "type": "VEC2"
    },
    {
      "bufferView": 3,
      "componentType": 5123,
      "count": 2280,
      "type": "SCALAR"
    }
  ],
  "bufferViews": [
    {
      "buffer": 0,
      "byteOffset": 0,
      "byteLength": 4584,
      "target": 34962
    },
    {
      "buffer": 0,
      "byteOffset": 4584,
      "byteLength": 4584,
      "target": 34962
    },
    {
      "buffer": 0,
      "byteOffset": 9168,
      "byteLength": 3056,
      "target": 34962
    },
    {
      "buffer": 0,
      "byteOffset": 12224,
      "byteLength": 4560,
      "target": 34963
    }
  ],
  "buffers": [
    {
      "uri": "data:application/octet-stream;base64,",
      "byteLength": 16784
    }
  ]
}
